<?xml version="1.0"?>
<svg xmlns="http://www.w3.org/2000/svg" xmlns:xlink="http://www.w3.org/1999/xlink" version="1.1" id="Capa_1" x="0px" y="0px" viewBox="0 0 463 463" style="enable-background:new 0 0 463 463;" xml:space="preserve" width="512px" height="512px"><g><g>
	<path d="M398.901,333.619l-29.255-7.314c-0.208-2.937-2.143-5.599-5.108-6.587l-45.817-15.272c-1.714-2.722-3.989-5.137-6.81-7.018   l-11.384-7.59C326.38,265.001,343,226.566,343,183.5c0-6.277-0.73-12.874-1.922-19.518c0.167-0.478,0.289-0.98,0.358-1.502   c0.049-0.374,4.969-37.94,7.714-83.077c1.1-18.076-4.562-35.747-15.941-49.758C321.795,15.592,305.644,6.481,287.73,3.991   C268.671,1.343,249.753,0,231.5,0c-14.523,0-50.229,2.388-74.907,24h-2.794c-13.158,0-25.843,5.521-34.804,15.146   c-8.933,9.596-13.519,22.593-12.583,35.659c2.09,29.176,6,70.601,12.753,102.26c0.177,0.828,0.494,1.589,0.905,2.277   c-0.034,1.384-0.07,2.767-0.07,4.158c0,43.066,16.62,81.501,42.473,106.338l-11.385,7.59c-2.821,1.881-5.096,4.296-6.81,7.018   l-45.817,15.272c-2.965,0.988-4.9,3.651-5.108,6.588l-29.255,7.314C35.779,340.699,16,366.031,16,395.223V439.5   c0,12.958,10.542,23.5,23.5,23.5h384c12.958,0,23.5-10.542,23.5-23.5v-44.277C447,366.032,427.221,340.699,398.901,333.619z    M313.26,371.66l13.568,20.353L298.391,448h-19.372c-0.138-10.893,0.52-34.566,7.733-53.876c0.107-0.285,0.189-0.574,0.259-0.863   c0.062-0.123,0.124-0.246,0.187-0.371l11.644-23.273c7.012-14.026,15.429-30.869,21.06-42.14c0.991-1.983,1.675-4.048,2.068-6.138   l30.755,10.251l-7.065,21.639l-27.977,6.994c-2.366,0.591-4.297,2.296-5.177,4.571C311.625,367.07,311.907,369.631,313.26,371.66z    M254.235,448l-6.524-51.377c4.37-2.744,7.289-7.593,7.289-13.123v-2.83c4.982,3.528,10.409,7.852,16.021,13.095   c-6.489,20.421-7.16,43.055-7.016,54.235H254.235z M199.22,448c0.144-11.21-0.531-33.933-7.068-54.397   c5.551-5.17,10.917-9.442,15.848-12.934v2.831c0,5.53,2.92,10.379,7.289,13.123L208.765,448H199.22z M231.499,367.488   c1.853,0.738,4.781,2.007,8.501,3.951V383.5c0,0.276-0.224,0.5-0.5,0.5h-16c-0.276,0-0.5-0.224-0.5-0.5v-12.062   C226.722,369.493,229.651,368.224,231.499,367.488z M230.108,399h2.784l6.222,49h-15.228L230.108,399z M306.483,320.773   c-13.946,27.911-23.889,47.803-29.199,58.414c-12.864-11.311-24.587-18.251-32.629-22.236l51.8-51.8l7.135,4.757   C307.149,312.28,308.393,316.951,306.483,320.773z M327.5,184H303v-8.5c0-4.142-3.358-7.5-7.5-7.5h-48c-4.142,0-7.5,3.358-7.5,7.5   v2.097c-2.638-1.027-5.503-1.597-8.5-1.597s-5.862,0.57-8.5,1.597V175.5c0-4.142-3.358-7.5-7.5-7.5h-48c-4.142,0-7.5,3.358-7.5,7.5   v8.5h-24.5c-0.167,0-0.33,0.014-0.495,0.025c-0.001-0.175-0.005-0.349-0.005-0.525c0-25.885,6.443-50.337,18.682-71.092   c47.21,14.692,100.167,14.648,156.125,14.597l4.643-0.002C320.211,141.57,328,164.738,328,183.5c0,0.175-0.005,0.35-0.005,0.525   C327.83,184.014,327.667,184,327.5,184z M121.374,73.732c-0.649-9.058,2.405-17.711,8.6-24.366   C136.197,42.682,144.658,39,153.799,39h5.701c1.926,0,3.778-0.741,5.172-2.069C185.456,17.137,218.331,15,231.5,15   c17.564,0,35.789,1.295,54.166,3.849c14.139,1.965,26.888,9.158,35.899,20.253c9.004,11.087,13.483,25.076,12.612,39.391   c-1.085,17.836-2.512,34.462-3.838,48.025c-1.313-3.489-2.634-6.818-3.914-9.897c-1.163-2.797-3.896-4.621-6.925-4.621   l-9.706,0.005c-56.922,0.053-110.697,0.095-156.966-15.648c-3.246-1.104-6.825,0.132-8.697,3.002   c-7.143,10.948-12.746,22.907-16.758,35.57C124.559,113.382,122.633,91.311,121.374,73.732z M135.796,199H160v0.5   c0,4.142,3.358,7.5,7.5,7.5s7.5-3.358,7.5-7.5V183h9v8.5c0,4.142,3.358,7.5,7.5,7.5s7.5-3.358,7.5-7.5V183h9v16.5   c0,4.142,3.358,7.5,7.5,7.5s7.5-3.358,7.5-7.5c0-4.687,3.813-8.5,8.5-8.5s8.5,3.813,8.5,8.5c0,4.142,3.358,7.5,7.5,7.5   s7.5-3.358,7.5-7.5V183h9v8.5c0,4.142,3.358,7.5,7.5,7.5s7.5-3.358,7.5-7.5V183h9v16.5c0,4.142,3.358,7.5,7.5,7.5   s7.5-3.358,7.5-7.5V199h24.204c-6.11,59.15-46.699,105-95.704,105S141.906,258.15,135.796,199z M231.5,319   c13.339,0,26.136-2.865,38.002-8.109L231.5,348.894l-38.002-38.002C205.364,316.135,218.161,319,231.5,319z M159.409,309.908   l7.136-4.757l51.8,51.8c-8.042,3.985-19.766,10.925-32.629,22.236c-5.413-10.818-15.547-31.093-29.198-58.414   C154.607,316.951,155.851,312.28,159.409,309.908z M141.031,321.339c0.393,2.09,1.077,4.156,2.068,6.138   c5.631,11.271,14.047,28.114,21.06,42.14l11.644,23.273c0.253,0.504,0.5,0.994,0.755,1.466c7.111,19.214,7.776,42.78,7.645,53.644   h-19.59l-28.439-55.988l13.568-20.352c1.353-2.029,1.635-4.59,0.755-6.865c-0.88-2.275-2.811-3.98-5.177-4.571l-27.977-6.994   l-7.066-21.639L141.031,321.339z M31,439.5v-44.277c0-22.296,15.107-41.645,36.737-47.052l29.746-7.437l6.888,21.093   c0.801,2.453,2.807,4.322,5.311,4.948l21.675,5.419L121.26,387.34c-1.502,2.253-1.673,5.142-0.447,7.557L147.788,448H103v-24.5   c0-4.142-3.358-7.5-7.5-7.5s-7.5,3.358-7.5,7.5V448H39.5C34.813,448,31,444.187,31,439.5z M432,439.5c0,4.687-3.813,8.5-8.5,8.5   H375v-24.5c0-4.142-3.358-7.5-7.5-7.5s-7.5,3.358-7.5,7.5V448h-44.785l26.972-53.104c1.227-2.415,1.056-5.303-0.447-7.557   l-10.096-15.145l21.675-5.419c2.504-0.625,4.51-2.495,5.311-4.948l6.888-21.094l29.746,7.436   c21.63,5.408,36.737,24.756,36.737,47.052V439.5z" data-original="#000000" class="active-path" data-old_color="#000000" fill="#C91111"/>
	<path d="M195.281,261.481C204.17,267.53,217.372,271,231.5,271s27.33-3.47,36.219-9.519c3.425-2.331,4.312-6.996,1.981-10.42   c-2.331-3.425-6.996-4.31-10.42-1.981c-6.368,4.333-16.753,6.92-27.781,6.92s-21.413-2.587-27.781-6.92   c-3.424-2.33-8.089-1.443-10.42,1.981C190.969,254.485,191.856,259.15,195.281,261.481z" data-original="#000000" class="active-path" data-old_color="#000000" fill="#C91111"/>
</g></g> </svg>
