<?xml version="1.0"?>
<svg xmlns="http://www.w3.org/2000/svg" xmlns:xlink="http://www.w3.org/1999/xlink" version="1.1" id="Capa_1" x="0px" y="0px" viewBox="0 0 463 463" style="enable-background:new 0 0 463 463;" xml:space="preserve" width="512px" height="512px"><g><g>
	<path d="M383.5,16H183v-0.5C183,6.953,176.047,0,167.5,0h-48C110.953,0,104,6.953,104,15.5V16H79.5C66.542,16,56,26.542,56,39.5   v400c0,12.958,10.542,23.5,23.5,23.5h304c12.958,0,23.5-10.542,23.5-23.5v-400C407,26.542,396.458,16,383.5,16z M119,15.5   c0-0.276,0.225-0.5,0.5-0.5h48c0.275,0,0.5,0.224,0.5,0.5v91.865l-21.146-10.573C145.799,96.264,144.649,96,143.5,96   s-2.299,0.264-3.354,0.792L119,107.365V15.5z M392,439.5c0,4.687-3.813,8.5-8.5,8.5h-304c-4.687,0-8.5-3.813-8.5-8.5v-400   c0-4.687,3.813-8.5,8.5-8.5H104v88.5c0,2.599,1.346,5.013,3.557,6.38c2.213,1.368,4.974,1.491,7.298,0.328l28.646-14.323   l28.646,14.323c1.059,0.529,2.208,0.792,3.354,0.792c1.371,0,2.738-0.376,3.943-1.12c2.211-1.367,3.557-3.781,3.557-6.38V31h200.5   c4.687,0,8.5,3.813,8.5,8.5V439.5z" data-original="#000000" class="active-path" data-old_color="#000000" fill="#C91111"/>
	<path d="M342.97,286.908c-0.005-0.07-0.007-0.141-0.014-0.21c-0.016-0.15-0.043-0.299-0.068-0.448   c-0.017-0.103-0.031-0.206-0.052-0.307c-0.021-0.099-0.051-0.198-0.076-0.297c-0.038-0.148-0.074-0.297-0.121-0.442   c-0.021-0.064-0.047-0.128-0.07-0.192c-0.062-0.176-0.126-0.35-0.2-0.519c-0.006-0.013-0.009-0.026-0.015-0.039L311,213.909V207   h8.5c4.143,0,7.5-3.358,7.5-7.5s-3.357-7.5-7.5-7.5H239v-10.234c9.29-3.138,16-11.93,16-22.266c0-12.958-10.542-23.5-23.5-23.5   S208,146.542,208,159.5c0,10.336,6.71,19.128,16,22.266V192h-80.5c-4.143,0-7.5,3.358-7.5,7.5s3.357,7.5,7.5,7.5h8.5v6.909   l-31.354,70.545c-0.006,0.013-0.01,0.027-0.015,0.04c-0.074,0.169-0.138,0.342-0.199,0.517c-0.023,0.064-0.05,0.128-0.071,0.193   c-0.047,0.145-0.083,0.293-0.121,0.442c-0.026,0.099-0.055,0.198-0.076,0.297c-0.021,0.101-0.034,0.205-0.052,0.307   c-0.025,0.149-0.052,0.298-0.068,0.448c-0.007,0.069-0.009,0.14-0.014,0.21c-0.015,0.183-0.027,0.366-0.028,0.549   c0,0.015-0.002,0.029-0.002,0.043c0,17.369,17.72,31.5,39.5,31.5s39.5-14.131,39.5-31.5c0-0.015-0.002-0.029-0.002-0.043   c-0.001-0.183-0.013-0.365-0.028-0.549c-0.005-0.07-0.007-0.141-0.014-0.21c-0.016-0.15-0.043-0.299-0.068-0.448   c-0.017-0.103-0.031-0.206-0.052-0.307c-0.021-0.099-0.051-0.198-0.076-0.297c-0.038-0.148-0.074-0.297-0.121-0.442   c-0.021-0.064-0.047-0.128-0.07-0.192c-0.062-0.176-0.126-0.35-0.2-0.519c-0.006-0.013-0.009-0.026-0.015-0.039L167,213.909V207h57   v66.234c-9.29,3.138-16,11.93-16,22.266V352h-16.5c-4.143,0-7.5,3.358-7.5,7.5s3.357,7.5,7.5,7.5h80c4.143,0,7.5-3.358,7.5-7.5   s-3.357-7.5-7.5-7.5H255v-56.5c0-10.336-6.71-19.128-16-22.266V207h57v6.909l-31.354,70.545c-0.006,0.013-0.01,0.027-0.015,0.04   c-0.074,0.169-0.138,0.342-0.199,0.517c-0.023,0.064-0.05,0.128-0.071,0.193c-0.047,0.145-0.083,0.293-0.121,0.442   c-0.026,0.099-0.055,0.198-0.076,0.297c-0.021,0.101-0.034,0.205-0.052,0.307c-0.025,0.149-0.052,0.298-0.068,0.448   c-0.007,0.069-0.009,0.14-0.014,0.21c-0.015,0.183-0.027,0.366-0.028,0.549c0,0.015-0.002,0.029-0.002,0.043   c0,17.369,17.72,31.5,39.5,31.5s39.5-14.131,39.5-31.5c0-0.015-0.002-0.029-0.002-0.043   C342.997,287.274,342.985,287.091,342.97,286.908z M231.5,151c4.687,0,8.5,3.813,8.5,8.5s-3.813,8.5-8.5,8.5s-8.5-3.813-8.5-8.5   S226.813,151,231.5,151z M159.5,233.967L179.959,280h-40.919L159.5,233.967z M159.5,304c-9.302,0-17.592-3.706-21.725-9h43.449   C177.092,300.294,168.802,304,159.5,304z M240,352h-17v-56.5c0-4.687,3.813-8.5,8.5-8.5s8.5,3.813,8.5,8.5V352z M303.5,233.967   L323.959,280h-40.919L303.5,233.967z M303.5,304c-9.302,0-17.592-3.706-21.725-9h43.449C321.092,300.294,312.802,304,303.5,304z" data-original="#000000" class="active-path" data-old_color="#000000" fill="#C91111"/>
</g></g> </svg>
